<svg width="116" height="73" viewBox="0 0 116 73" fill="none" xmlns="http://www.w3.org/2000/svg">
<path d="M11.4149 43.5133C8.20223 43.5133 4.98681 43.5161 1.77414 43.5078C1.24509 43.5078 0.600906 43.6559 0.376128 42.9706C0.145868 42.2633 0.526893 41.7535 1.05868 41.2957C5.50764 37.4443 9.95385 33.5902 14.3699 29.7032C14.8524 29.2783 15.3156 29.1139 15.9214 29.1193C17.7334 29.1358 19.548 29.0837 21.3572 29.1467C22.0425 29.1714 22.2974 28.9439 22.4345 28.3189C23.4049 23.8508 25.2661 19.7582 27.9059 16.0439C32.0835 10.164 37.5165 5.83841 44.2434 3.15478C48.8486 1.31818 53.6375 0.391659 58.5798 0.482118C68.0781 0.654813 76.4524 3.76881 83.5055 10.2517C88.7028 15.0269 92.1649 20.819 93.9467 27.6281C93.9988 27.8255 94.0673 28.0229 94.0783 28.223C94.1166 28.9357 94.4264 29.1495 95.1775 29.144C101.501 29.1056 107.828 29.1193 114.152 29.1248C114.835 29.1248 115.58 29.0453 115.627 30.0733C115.651 30.5996 115.303 30.8792 114.974 31.167C112.233 33.5601 109.481 35.9476 106.734 38.3352C104.988 39.8538 103.226 41.3533 101.51 42.9048C101.011 43.3571 100.501 43.527 99.854 43.5188C98.2805 43.4941 96.7098 43.527 95.1364 43.5024C94.6018 43.4941 94.3496 43.5627 94.2071 44.2096C92.6803 51.1585 89.336 57.1151 84.2292 62.0767C79.0428 67.115 72.9053 70.3797 65.8084 71.7613C57.5382 73.3704 49.5257 72.4521 41.9161 68.8337C35.3318 65.7033 30.2058 60.8897 26.4037 54.6645C24.4548 51.4765 23.202 48.0089 22.3523 44.4042C22.1576 43.5791 21.8479 43.4941 21.1598 43.4996C17.9088 43.527 14.6605 43.5133 11.4149 43.5133Z" fill="#15294C"/>
<path d="M115.013 29.9445C112.345 32.2828 109.914 34.4209 107.477 36.5508C105.451 38.3244 103.395 40.0678 101.4 41.8742C100.747 42.4636 100.092 42.7322 99.2069 42.6966C97.6362 42.6335 96.06 42.7185 94.4893 42.6609C93.8232 42.6363 93.6012 42.9104 93.486 43.4805C92.0359 50.7803 88.4724 56.9179 83.0668 61.9726C77.3294 67.3399 70.5258 70.5197 62.6915 71.4051C53.4345 72.4522 44.8902 70.4758 37.2669 65.0729C29.8081 59.7879 24.9809 52.68 23.0648 43.6971C22.8866 42.861 22.5686 42.6527 21.7353 42.6582C15.2387 42.6993 8.74207 42.6801 2.24818 42.6801C1.89183 42.6801 1.53273 42.6801 0.858398 42.6801C2.1029 41.5699 3.09521 40.6681 4.10671 39.7882C7.70864 36.6577 11.3243 33.5437 14.907 30.3914C15.31 30.0377 15.691 29.9363 16.1844 29.9391C18.1663 29.9528 20.1509 29.9253 22.1328 29.9555C22.703 29.9637 22.9332 29.8239 23.0812 29.2154C26.3487 15.8603 34.5723 6.92949 47.6807 2.94105C60.2628 -0.888394 71.8525 1.65543 81.9758 10.0599C87.9899 15.0544 91.7618 21.5455 93.4367 29.1934C93.5929 29.9116 93.878 29.9528 94.44 29.9528C100.868 29.9418 107.296 29.9473 113.724 29.9473C114.053 29.9445 114.385 29.9445 115.013 29.9445Z" fill="white"/>
<path d="M90.7863 27.0797C86.4552 27.0797 82.253 27.066 78.048 27.0961C77.486 27.1016 77.3764 26.7672 77.1845 26.4108C74.4488 21.3232 70.3671 17.7953 64.8902 15.934C55.1563 12.6227 44.1641 16.9318 39.2902 25.975C38.8516 26.7864 38.3911 27.1208 37.429 27.1044C33.5748 27.0386 29.7152 27.077 25.7871 27.077C26.1517 25.9832 26.5026 24.9608 26.826 23.9328C27.0097 23.3517 27.4675 23.4065 27.9061 23.4202C30.0551 23.4833 32.207 23.5271 34.3533 23.6368C35.1538 23.6779 35.7075 23.4504 36.1598 22.7788C36.7875 21.8468 37.4646 20.9449 38.1773 20.076C38.6159 19.5387 38.6981 19.0535 38.4405 18.3956C37.6674 16.4028 36.9794 14.377 36.2064 12.3842C35.9569 11.7373 36.0035 11.348 36.634 10.9478C37.8401 10.1803 39.0134 9.35241 40.1482 8.48071C40.7705 8.00101 41.2365 7.99004 41.8587 8.48071C43.5473 9.81019 45.288 11.0684 46.9875 12.3842C47.5522 12.8228 48.0593 12.9351 48.7638 12.6638C49.8685 12.2334 51.0198 11.9072 52.1711 11.6029C52.7467 11.4522 53.0154 11.1314 53.1716 10.5914C53.7473 8.60133 54.375 6.62493 54.9315 4.62934C55.1837 3.71926 55.6031 3.23407 56.642 3.30534C57.9687 3.3958 59.3064 3.36565 60.6386 3.34372C61.4555 3.33001 61.8475 3.68089 62.0641 4.47309C62.6287 6.53721 63.2976 8.57392 63.8842 10.6326C64.0624 11.263 64.4078 11.6002 65.0328 11.7784C66.1759 12.0991 67.308 12.4609 68.4291 12.8529C68.9417 13.0311 69.3227 12.9489 69.7476 12.6199C71.4773 11.2877 73.2427 10.0021 74.9641 8.66163C75.5644 8.19563 76.0304 8.11339 76.6719 8.626C77.7629 9.4977 78.9142 10.2954 80.0792 11.0684C80.7316 11.4988 80.8906 11.9319 80.5973 12.6857C79.8325 14.6484 79.1691 16.6495 78.4208 18.6204C78.1795 19.2563 78.1631 19.7936 78.6401 20.3144C78.799 20.4899 78.9169 20.7037 79.0567 20.8956C81.1455 23.7711 81.1455 23.7711 84.7145 23.6093C86.0769 23.5463 87.442 23.5107 88.8044 23.4257C89.3773 23.3901 89.6734 23.6011 89.8324 24.1548C90.1065 25.0951 90.4381 26.0216 90.7863 27.0797Z" fill="#D8091E"/>
<path d="M49.8466 51.3148C48.6021 51.3175 47.8702 50.783 47.4727 49.8071C47.0753 48.8312 47.2205 47.8937 48.0127 47.1947C49.1366 46.2024 50.351 45.3143 51.4913 44.3439C55.2879 41.1148 58.9309 37.7184 62.4835 34.2289C63.2428 33.4833 63.6896 33.6779 64.3064 34.2755C65.2384 35.1774 65.2685 35.2377 64.3996 36.1779C60.4687 40.4377 56.4255 44.5988 52.6974 49.0423C52.3685 49.4316 52.0642 49.8427 51.7736 50.2621C51.2693 50.9995 50.5757 51.3394 49.8466 51.3148Z" fill="#15294C"/>
<path d="M23.1855 40.8569C18.9503 40.8569 14.7152 40.8158 10.4828 40.887C9.3918 40.9035 9.58916 40.2977 9.57546 39.6754C9.55901 39.0504 9.44936 38.5351 10.4581 38.5406C18.9942 38.5872 27.533 38.5844 36.0691 38.5406C37.0559 38.5351 37.0724 38.9682 37.0559 39.6974C37.0395 40.3827 37.1217 40.898 36.0938 40.8816C31.7928 40.8213 27.4891 40.8569 23.1855 40.8569Z" fill="#D8091E"/>
<path d="M56.483 31.9235C51.7462 31.2656 49.1229 35.0457 49.7479 38.7737C48.9282 37.9267 48.1114 37.0769 47.2863 36.2381C46.4721 35.413 45.6635 34.5769 44.8192 33.7847C44.3861 33.379 44.2956 33.0994 44.7753 32.6334C46.7298 30.7311 48.6514 28.7876 50.5812 26.8578C50.858 26.5809 51.0938 26.304 51.5022 26.718C53.1497 28.3956 54.8163 30.0567 56.472 31.7288C56.5049 31.7645 56.4802 31.8577 56.483 31.9235Z" fill="#15294C"/>
<path d="M66.9515 38.733C67.0283 36.7045 66.7103 34.92 65.252 33.4891C63.8183 32.0801 62.0503 31.7429 60.019 31.8307C61.735 30.1421 63.4565 28.459 65.1643 26.7594C65.4631 26.4634 65.6686 26.5264 65.9263 26.7869C67.9493 28.8126 69.9723 30.8383 72.009 32.8531C72.327 33.1684 72.3051 33.3685 71.9926 33.6782C70.3012 35.3531 68.6291 37.0471 66.9515 38.733Z" fill="#15294C"/>
<path d="M59.2129 43.8149C59.9941 42.9761 60.7589 42.1537 61.5237 41.3341C62.3351 42.0468 63.1493 42.7568 63.9606 43.4695C65.3175 44.6619 66.6388 45.9009 68.13 46.9344C68.9661 47.5128 69.3444 48.3296 69.1936 49.3082C69.0428 50.2759 68.4727 50.9667 67.4968 51.2901C66.4606 51.6328 65.5725 51.3641 64.9255 50.5555C63.0889 48.2638 61.214 46.0106 59.2129 43.8149Z" fill="#15294C"/>
<path d="M79.0919 45.9942C78.4148 46.1203 77.5623 45.5145 77.0771 46.4273C75.4653 49.4591 73.1819 51.8932 70.4517 53.9409C69.887 54.2863 69.3333 54.6481 68.7549 54.9716C64.4813 57.3619 59.8953 58.3021 55.0599 57.5565C48.0232 56.4683 42.7382 52.754 39.2268 46.5534C39.0321 46.2107 38.854 45.9503 38.3852 45.9531C34.2542 45.9695 30.126 45.9613 25.9512 45.9613C26.0608 46.9207 26.5241 47.6882 26.7735 48.5243C26.9572 49.1466 27.3163 49.2836 27.9002 49.259C29.7066 49.1795 31.5213 49.2151 33.3168 49.0506C34.8107 48.9136 35.973 49.1767 36.7131 50.6158C37.0201 51.2134 37.4779 51.7425 37.9192 52.2633C38.4099 52.8417 38.4976 53.3927 38.207 54.1273C37.4121 56.1448 36.7213 58.2007 35.9538 60.2264C35.7537 60.7555 35.7975 61.1064 36.2827 61.4463C37.5958 62.3591 38.8978 63.2911 40.178 64.2505C40.6412 64.5987 40.9784 64.5658 41.4307 64.2149C43.0726 62.9402 44.7749 61.7368 46.3977 60.4375C47.1652 59.8235 47.8478 59.585 48.799 60.0346C49.6214 60.4238 50.5232 60.6733 51.4141 60.8734C52.2255 61.0543 52.5983 61.5176 52.8148 62.2796C53.396 64.3355 54.0566 66.3695 54.635 68.4281C54.8132 69.064 55.1366 69.3299 55.7808 69.3245C57.2501 69.3135 58.7221 69.2833 60.1859 69.3519C61.0329 69.393 61.4167 69.0449 61.636 68.2773C62.2144 66.2543 62.875 64.256 63.426 62.2275C63.6151 61.5367 63.9496 61.2215 64.6294 61.0515C65.7478 60.7719 66.8552 60.4293 67.9325 60.0181C68.6014 59.7632 69.0893 59.9003 69.6238 60.3087C70.9835 61.3503 72.376 62.3536 73.7548 63.3733C74.0426 63.6091 74.3551 63.8202 74.6128 64.086C75.2926 64.7768 75.8984 64.7193 76.6468 64.1162C77.6774 63.2856 78.7739 62.5236 79.9033 61.8273C80.6105 61.3915 80.6653 60.9364 80.3912 60.2237C79.6484 58.2967 78.9795 56.3394 78.2394 54.4124C77.9653 53.6997 78.0146 53.1295 78.5217 52.5374C79.0289 51.9481 79.451 51.2847 79.9115 50.6542C80.6626 49.2398 81.8084 48.8834 83.3764 49.0643C85.1664 49.2727 86.9865 49.2069 88.7957 49.248C89.1576 49.2562 89.5852 49.3439 89.7496 48.8642C90.0731 47.924 90.3856 46.9783 90.7173 45.9914C86.7453 45.9942 82.9186 45.9942 79.0919 45.9942Z" fill="#15294C"/>
<path d="M55.077 39.2727C54.9043 39.1137 54.7563 38.9876 54.6247 38.8506C53.6818 37.8692 52.7662 36.8605 51.7903 35.9093C51.36 35.4899 51.3956 35.1911 51.7876 34.8183C51.9822 34.6319 52.1467 34.4126 52.3249 34.207C52.8676 33.5793 53.3172 33.5025 53.9504 34.2125C54.8084 35.1719 55.8089 36.008 56.7711 36.8687C57.1247 37.1839 57.2069 37.4197 56.804 37.7514C56.2311 38.2256 55.6856 38.7327 55.077 39.2727Z" fill="#15294C"/>
<path d="M48.8842 24.248C48.7773 24.3659 48.6704 24.4947 48.5525 24.6126C46.5542 26.6137 44.5449 28.6093 42.5575 30.624C42.2286 30.9557 42.012 31.0462 41.6612 30.6487C41.3514 30.3006 41.1595 30.0593 41.5817 29.6427C43.5992 27.6581 45.5948 25.6515 47.5986 23.6532C47.7686 23.4832 47.9467 23.2722 48.2044 23.4695C48.4703 23.6696 48.7417 23.878 48.8842 24.248Z" fill="#15294C"/>
<path d="M43.7118 32.4309C43.2841 32.3925 43.106 32.0691 42.8894 31.8251C42.6783 31.5839 42.8839 31.392 43.0566 31.2193C45.0796 29.2018 47.1081 27.1897 49.1201 25.1613C49.4326 24.846 49.6629 24.8296 49.9507 25.1695C50.1892 25.4491 50.5702 25.6684 50.1508 26.0878C48.1059 28.13 46.061 30.1776 44.0133 32.2171C43.9228 32.3075 43.7995 32.3678 43.7118 32.4309Z" fill="#15294C"/>
<path d="M75.3808 30.1089C75.2985 30.5037 74.9888 30.6928 74.7393 30.8984C74.446 31.1396 74.2432 30.8545 74.054 30.6681C72.9411 29.5607 71.8309 28.4505 70.7208 27.3403C69.9011 26.5207 69.087 25.6929 68.2592 24.876C67.9247 24.5443 67.6342 24.2866 68.1139 23.7932C68.5717 23.319 68.8156 23.5136 69.1775 23.8782C71.099 25.819 73.0371 27.7405 74.9696 29.6703C75.1121 29.8129 75.2465 29.9664 75.3808 30.1089Z" fill="#15294C"/>
<path d="M98.9742 39.3028C99.04 38.7272 98.8262 38.538 98.2395 38.5517C96.4386 38.5983 94.6376 38.5901 92.8394 38.6038C88.3027 38.5901 83.7661 38.5819 79.2294 38.549C78.7278 38.5462 78.5606 38.7189 78.6017 39.1986C78.6318 39.5358 78.6318 39.8812 78.6017 40.2211C78.5606 40.7008 78.7278 40.8735 79.2294 40.8708C83.9031 40.8406 88.5741 40.8324 93.2478 40.816C94.9474 40.8297 96.6442 40.8297 98.3437 40.8653C98.8371 40.8763 99.018 40.7008 98.9742 40.2184C98.944 39.9168 98.9386 39.6043 98.9742 39.3028Z" fill="#15294C"/>
<path d="M67.0998 24.8785C67.2835 25.0512 67.437 25.1856 67.5795 25.3308C69.5093 27.2551 71.4336 29.1822 73.3662 31.1038C73.6951 31.4327 74.0076 31.6849 73.5169 32.1783C73.0427 32.6525 72.7878 32.4168 72.4424 32.0659C70.4989 30.1087 68.5389 28.168 66.5982 26.208C66.4501 26.0572 66.039 25.9257 66.3707 25.5803C66.5982 25.3391 66.8476 25.117 67.0998 24.8785Z" fill="#15294C"/>
<path d="M49.7615 47.5677C50.5071 47.5732 51.1403 48.2064 51.0745 48.9493C51.006 49.7223 50.5427 50.1883 49.7615 50.2431C49.057 50.2924 48.3717 49.5989 48.3662 48.8999C48.3608 48.19 49.0214 47.5595 49.7615 47.5677Z" fill="white"/>
<path d="M49.9728 31.2382C49.981 31.7974 49.6932 32.0715 49.2491 32.1017C48.7886 32.1318 48.4761 31.8522 48.4542 31.378C48.4295 30.9038 48.7009 30.6159 49.1724 30.5885C49.6548 30.5584 49.8933 30.8572 49.9728 31.2382Z" fill="white"/>
<path d="M68.1853 31.3561C68.0894 31.8056 67.8756 32.1428 67.3849 32.1263C66.9216 32.1126 66.5954 31.8413 66.6037 31.367C66.6119 30.9093 66.9107 30.6077 67.3822 30.6022C67.8646 30.5968 68.0812 30.9367 68.1853 31.3561Z" fill="white"/>
<path d="M66.8065 50.2947C66.0746 50.3167 65.4112 49.7026 65.392 48.9845C65.3728 48.3019 66.0581 47.5755 66.7544 47.6084C67.5411 47.6468 67.9989 48.1155 68.0893 48.883C68.1743 49.6094 67.5411 50.2728 66.8065 50.2947Z" fill="white"/>
<path d="M105.86 32.025C97.3595 32.0771 88.8618 32.0442 80.3614 32.0524C80.09 32.0524 79.7446 31.8688 79.5363 32.2251C79.4541 32.9132 79.4541 33.6012 79.5363 34.2893C79.7474 34.6456 80.09 34.4619 80.3614 34.4619C88.8618 34.4702 97.3622 34.44 105.86 34.4894C106.954 34.4948 106.866 33.9631 106.866 33.2558C106.866 32.5459 106.951 32.0168 105.86 32.025Z" fill="#15294C"/>
<path d="M37.0013 32.0056C33.9257 32.0577 30.8501 32.0276 27.7745 32.0276C24.6989 32.0276 21.6205 32.0906 18.5476 31.9947C17.4429 31.959 17.5389 32.51 17.5389 33.22C17.5389 33.9491 17.3936 34.5358 18.5723 34.5221C24.5508 34.448 30.5321 34.4892 36.5134 34.4892C38.0019 34.4892 37.958 34.4864 38.0101 33.0418C38.0402 32.2524 37.8374 31.9919 37.0013 32.0056Z" fill="#D8091E"/>
</svg>
